<svg width="148" height="148" viewBox="0 0 148 148" fill="none" xmlns="http://www.w3.org/2000/svg">
<path d="M93.052 25.0394C93.052 23.5186 93.052 20.3309 93.052 16.0004C93.052 9.37299 87.6794 4 81.052 4H61.3823C54.7549 4 49.3823 9.37258 49.3823 16V42.6859C49.3823 49.3133 44.0097 54.6859 37.3823 54.6859H16C9.37257 54.6859 4 60.0584 4 66.6859V89.0682C4 95.6956 9.37258 101.068 16 101.068H37.3823C44.0097 101.068 49.3823 106.441 49.3823 113.068V132C49.3823 138.627 54.7548 144 61.3823 144H81.052C87.6794 144 93.052 138.627 93.052 132V113.068C93.052 106.441 98.4246 101.068 105.052 101.068H132C138.627 101.068 144 95.6956 144 89.0682V66.6859C144 60.0584 138.627 54.6859 132 54.6859H125.5" stroke="#4FACFE" stroke-width="8"/>
<path fill-rule="evenodd" clip-rule="evenodd" d="M106.17 82.402C106.17 82.402 107.813 68.6365 118.132 59.1019C128.449 49.5673 126.92 40.3413 126.92 40.3413C126.92 40.3413 126.643 35.6459 122.64 31.1632C119.423 27.5611 113.029 23.9722 104.5 24.0002C85.3579 24.0629 82.4715 38.2765 82.4715 38.2765C82.4715 38.2765 79.3198 47.6048 89.3141 57.4342C99.3075 67.2635 102.027 75.0642 102.705 82.402C102.705 82.402 104.509 85.9975 106.17 82.402Z" fill="#DC4B3E"/>
<path fill-rule="evenodd" clip-rule="evenodd" d="M104.5 54C109.747 54 114 49.7467 114 44.5C114 39.2532 109.747 35 104.5 35C99.2533 35 95 39.2532 95 44.5C95 49.7467 99.2533 54 104.5 54Z" fill="#812C28"/>
</svg>
